<svg width="250" height="250" viewBox="0 0 250 250" fill="none" xmlns="http://www.w3.org/2000/svg">
<rect x="4" y="4" width="242" height="242" rx="35" stroke="#E44848" stroke-width="8"/>
<path d="M69.8888 41.2663C70.3613 38.9352 72.4106 37.2596 74.7891 37.2596H210.106C213.267 37.2596 215.635 40.1554 215.007 43.2529L209.009 72.8431C208.536 75.1742 206.487 76.8498 204.108 76.8498H68.7911C65.6306 76.8498 63.2629 73.954 63.8907 70.8565L69.8888 41.2663Z" fill="#E4D448"/>
<path d="M55.4437 109.747C55.9162 107.415 57.9655 105.74 60.344 105.74H125.386C127.551 105.74 129.47 104.347 130.14 102.288L133.935 90.6325C135.101 87.0495 139.662 85.9955 142.282 88.7034L152.556 99.3199L175.866 121.284C178.185 123.47 177.895 127.24 175.268 129.045L127.675 161.739C124.176 164.142 119.464 161.369 119.866 157.144L120.47 150.804C120.749 147.869 118.441 145.33 115.492 145.33H54.346C51.1855 145.33 48.8178 142.434 49.4457 139.337L55.4437 109.747Z" fill="#E44848"/>
<path d="M39.3182 177.522C39.6348 175.023 41.7601 173.15 44.2786 173.15H98.1211C101.159 173.15 103.494 175.836 103.073 178.845L98.9235 208.435C98.5773 210.904 96.4651 212.74 93.9719 212.74H40.5293C37.5184 212.74 35.1905 210.099 35.5689 207.112L39.3182 177.522Z" fill="#E4D448"/>
</svg>
